P2
8 10
255
59 59 59 60 61 61 61 60
59 59 59 60 61 61 61 60
59 59 59 60 61 61 61 60
59 58 59 60 61 62 61 60
58 58 59 60 61 62 62 60
57 58 58 61 61 64 62 60
54 58 56 62 60 66 62 62
47 60 53 66 56 70 61 67
59 47 64 55 67 59 73 55
27 68 45 80 41 80 57 81
