P2
8 7
255
56 58 57 61 61 64 62 61
58 55 59 59 63 62 65 59
54 58 56 62 60 66 62 63
58 52 61 58 65 62 68 58
47 60 53 66 56 70 61 67
59 47 64 55 67 59 73 55
27 68 45 80 41 80 57 81
